<mxfile host="app.diagrams.net" modified="2022-05-31T01:58:46.716Z" agent="5.0 (Macintosh; Intel Mac OS X 10_15_7) AppleWebKit/537.36 (KHTML, like Gecko) Chrome/102.0.0.0 Safari/537.36" etag="TNKGYJDCCBCdAXNjPmVP" version="18.1.3" type="github">
  <diagram id="v-BgD73jG9vohkOo6Npx" name="Page-1">
    <mxGraphModel dx="1186" dy="642" grid="1" gridSize="10" guides="1" tooltips="1" connect="1" arrows="1" fold="1" page="1" pageScale="1" pageWidth="827" pageHeight="1169" math="0" shadow="0">
      <root>
        <mxCell id="0" />
        <mxCell id="1" parent="0" />
        <mxCell id="61qv3UCJ7zgybfS_xquZ-5" style="edgeStyle=orthogonalEdgeStyle;rounded=0;orthogonalLoop=1;jettySize=auto;html=1;" edge="1" parent="1" source="61qv3UCJ7zgybfS_xquZ-1" target="61qv3UCJ7zgybfS_xquZ-2">
          <mxGeometry relative="1" as="geometry" />
        </mxCell>
        <mxCell id="61qv3UCJ7zgybfS_xquZ-1" value="istio控制面（Destination&amp;amp;VirtualService）" style="rounded=0;whiteSpace=wrap;html=1;fillColor=#dae8fc;strokeColor=#6c8ebf;" vertex="1" parent="1">
          <mxGeometry x="200" y="120" width="200" height="60" as="geometry" />
        </mxCell>
        <mxCell id="61qv3UCJ7zgybfS_xquZ-10" style="edgeStyle=orthogonalEdgeStyle;rounded=0;orthogonalLoop=1;jettySize=auto;html=1;entryX=0;entryY=0.5;entryDx=0;entryDy=0;" edge="1" parent="1" source="61qv3UCJ7zgybfS_xquZ-2" target="61qv3UCJ7zgybfS_xquZ-8">
          <mxGeometry relative="1" as="geometry" />
        </mxCell>
        <mxCell id="61qv3UCJ7zgybfS_xquZ-11" style="edgeStyle=orthogonalEdgeStyle;rounded=0;orthogonalLoop=1;jettySize=auto;html=1;" edge="1" parent="1" source="61qv3UCJ7zgybfS_xquZ-2" target="61qv3UCJ7zgybfS_xquZ-9">
          <mxGeometry relative="1" as="geometry" />
        </mxCell>
        <mxCell id="61qv3UCJ7zgybfS_xquZ-2" value="Service" style="rounded=1;whiteSpace=wrap;html=1;" vertex="1" parent="1">
          <mxGeometry x="250" y="240" width="100" height="40" as="geometry" />
        </mxCell>
        <mxCell id="61qv3UCJ7zgybfS_xquZ-4" style="edgeStyle=orthogonalEdgeStyle;rounded=0;orthogonalLoop=1;jettySize=auto;html=1;entryX=0;entryY=0.5;entryDx=0;entryDy=0;" edge="1" parent="1" source="61qv3UCJ7zgybfS_xquZ-3" target="61qv3UCJ7zgybfS_xquZ-2">
          <mxGeometry relative="1" as="geometry" />
        </mxCell>
        <mxCell id="61qv3UCJ7zgybfS_xquZ-3" value="istio-gateway" style="rounded=1;whiteSpace=wrap;html=1;" vertex="1" parent="1">
          <mxGeometry x="100" y="240" width="100" height="40" as="geometry" />
        </mxCell>
        <mxCell id="61qv3UCJ7zgybfS_xquZ-6" value="根据控制面规则转发流量" style="text;html=1;strokeColor=none;fillColor=none;align=left;verticalAlign=middle;whiteSpace=wrap;rounded=0;" vertex="1" parent="1">
          <mxGeometry x="190" y="200" width="100" height="30" as="geometry" />
        </mxCell>
        <mxCell id="61qv3UCJ7zgybfS_xquZ-8" value="Deploy-gray" style="rounded=1;whiteSpace=wrap;html=1;fillColor=#dae8fc;strokeColor=#6c8ebf;" vertex="1" parent="1">
          <mxGeometry x="400" y="200" width="100" height="40" as="geometry" />
        </mxCell>
        <mxCell id="61qv3UCJ7zgybfS_xquZ-9" value="Deploy" style="rounded=1;whiteSpace=wrap;html=1;" vertex="1" parent="1">
          <mxGeometry x="400" y="280" width="100" height="40" as="geometry" />
        </mxCell>
        <mxCell id="61qv3UCJ7zgybfS_xquZ-15" style="edgeStyle=orthogonalEdgeStyle;rounded=0;orthogonalLoop=1;jettySize=auto;html=1;entryX=1;entryY=0.5;entryDx=0;entryDy=0;" edge="1" parent="1" source="61qv3UCJ7zgybfS_xquZ-13" target="61qv3UCJ7zgybfS_xquZ-8">
          <mxGeometry relative="1" as="geometry" />
        </mxCell>
        <mxCell id="61qv3UCJ7zgybfS_xquZ-17" style="edgeStyle=orthogonalEdgeStyle;rounded=0;orthogonalLoop=1;jettySize=auto;html=1;entryX=1;entryY=0.5;entryDx=0;entryDy=0;" edge="1" parent="1" source="61qv3UCJ7zgybfS_xquZ-13" target="61qv3UCJ7zgybfS_xquZ-1">
          <mxGeometry relative="1" as="geometry">
            <Array as="points">
              <mxPoint x="620" y="150" />
            </Array>
          </mxGeometry>
        </mxCell>
        <mxCell id="61qv3UCJ7zgybfS_xquZ-24" style="edgeStyle=orthogonalEdgeStyle;rounded=0;orthogonalLoop=1;jettySize=auto;html=1;entryX=1;entryY=0.5;entryDx=0;entryDy=0;" edge="1" parent="1" source="61qv3UCJ7zgybfS_xquZ-13" target="61qv3UCJ7zgybfS_xquZ-23">
          <mxGeometry relative="1" as="geometry" />
        </mxCell>
        <mxCell id="61qv3UCJ7zgybfS_xquZ-25" style="edgeStyle=orthogonalEdgeStyle;rounded=0;orthogonalLoop=1;jettySize=auto;html=1;entryX=1;entryY=0.5;entryDx=0;entryDy=0;" edge="1" parent="1" source="61qv3UCJ7zgybfS_xquZ-13" target="61qv3UCJ7zgybfS_xquZ-21">
          <mxGeometry relative="1" as="geometry" />
        </mxCell>
        <mxCell id="61qv3UCJ7zgybfS_xquZ-13" value="ALLInOne" style="rounded=0;whiteSpace=wrap;html=1;fillColor=#dae8fc;strokeColor=#6c8ebf;" vertex="1" parent="1">
          <mxGeometry x="560" y="240" width="120" height="40" as="geometry" />
        </mxCell>
        <mxCell id="61qv3UCJ7zgybfS_xquZ-18" value="自动配置控制面规则" style="text;html=1;strokeColor=none;fillColor=none;align=left;verticalAlign=middle;whiteSpace=wrap;rounded=0;" vertex="1" parent="1">
          <mxGeometry x="500" y="120" width="130" height="30" as="geometry" />
        </mxCell>
        <mxCell id="61qv3UCJ7zgybfS_xquZ-19" value="自动化部署灰度组件" style="text;html=1;strokeColor=none;fillColor=none;align=left;verticalAlign=middle;whiteSpace=wrap;rounded=0;" vertex="1" parent="1">
          <mxGeometry x="500" y="190" width="130" height="30" as="geometry" />
        </mxCell>
        <mxCell id="61qv3UCJ7zgybfS_xquZ-21" value="Wasm-Log" style="rounded=1;whiteSpace=wrap;html=1;fillColor=#f5f5f5;dashed=1;fontColor=#333333;strokeColor=#666666;" vertex="1" parent="1">
          <mxGeometry x="400" y="240" width="100" height="20" as="geometry" />
        </mxCell>
        <mxCell id="61qv3UCJ7zgybfS_xquZ-23" value="Wasm-Log" style="rounded=1;whiteSpace=wrap;html=1;fillColor=#f5f5f5;dashed=1;fontColor=#333333;strokeColor=#666666;" vertex="1" parent="1">
          <mxGeometry x="400" y="320" width="100" height="20" as="geometry" />
        </mxCell>
        <mxCell id="61qv3UCJ7zgybfS_xquZ-26" value="按需插入Wasm日志模块" style="text;html=1;strokeColor=none;fillColor=none;align=left;verticalAlign=middle;whiteSpace=wrap;rounded=0;" vertex="1" parent="1">
          <mxGeometry x="535" y="290" width="60" height="30" as="geometry" />
        </mxCell>
      </root>
    </mxGraphModel>
  </diagram>
</mxfile>
